<svg width="800" height="400" xmlns="http://www.w3.org/2000/svg">
 <g>
  <title>Layer 1</title>
  <path stroke-width="4" d="m140,195c1,0 0.61731,-0.07613 1,-1c0.5412,-1.30656 1.61731,-2.07613 2,-3c0.5412,-1.30656 2,-2 3,-3c1,-1 3,-3 4,-4c1,-1 3,-3 5,-5c1,-1 2.70546,-3.34619 5,-5c1.814,-1.30745 5.71899,-5.31021 9,-8c2.78833,-2.28587 7.9183,-6.11214 12,-9c2.94336,-2.08247 5.95328,-5.07193 9,-7c4.92722,-3.1181 8.64117,-5.55037 13,-8c4.6946,-2.63832 11.133,-5.5695 15,-7c4.19435,-1.55159 9.76993,-4.54863 14,-6c4.82303,-1.65482 12.96329,-3.16042 17,-4c5.95532,-1.23863 13.03043,-1.80617 20,-3c5.02582,-0.86089 12,-1 17,-1c8,0 19,0 29,0c6,0 18.00385,-0.0451 30,1c11.00369,0.95864 18,2 26,3c8,1 13.90326,2.38042 25,5c4.96262,1.17151 11.21512,2.36079 18,5c4.16791,1.62125 6.41208,1.96855 10,4c3.69196,2.09035 8,6 11,9c3,3 6.4136,4.62532 10,9c2.28589,2.78833 2.71411,5.21167 5,8c1.79318,2.18735 4.71411,5.21167 7,8c1.79318,2.18735 4.55219,5.25725 7,9c4.27493,6.53644 8,9 11,13c3,4 4.83505,6.1133 9,12c2.88785,4.0817 5.11349,6.9203 10,14c2.0481,2.96736 5.20682,6.81265 7,9c2.28589,2.78833 4.41885,5.41885 6,7c1.58115,1.58115 3.07278,3.8819 8,7c3.04675,1.92807 9,5 13,7c4,2 8.94342,3.14774 14,5c5.93866,2.17538 11.03046,2.80615 18,4c5.02582,0.8609 11.04187,1.70856 19,3c5.0332,0.81677 12.93799,2.49829 19,3c4.98297,0.41241 12,1 20,1c8,0 12,0 19,0c7,0 15.01703,0.41241 20,0c6.06201,-0.50171 11,-1 19,-1c5,0 10.06458,-0.1991 15,-1c3.12146,-0.50653 6.88531,-2.12967 8,-3c4.59601,-3.58844 7,-5 17,-10c4,-2 7.86328,-5.1468 10,-7c3.77728,-3.27602 9.31024,-7.71899 12,-11c2.28589,-2.78833 6.73328,-10.23274 12,-16c3.81464,-4.17715 8.71411,-8.21167 11,-11c3.58636,-4.37468 5.34619,-4.70546 7,-7c1.30743,-1.814 2,-3 3,-4c0,0 0.61731,-1.07613 1,-2c0.5412,-1.30656 1,-1 1,-1c1,-1 1,-1 1,-1l1,-1l0,0" id="svg_6" stroke="#000" fill="none"/>
 </g>

</svg>